{
	"asset":{
		"generator":"Khronos glTF Blender I/O v5.1.18",
		"version":"2.0"
	},
	"scene":0,
	"scenes":[
		{
			"name":"Scene",
			"nodes":[
				0
			]
		}
	],
	"nodes":[
		{
			"mesh":0,
			"name":"Circle"
		}
	],
	"materials":[
		{
			"doubleSided":true,
			"name":"Base",
			"pbrMetallicRoughness":{
				"baseColorFactor":[
					0.25818297266960144,
					0.32314333319664,
					0.4232676923274994,
					1
				],
				"metallicFactor":0,
				"roughnessFactor":0.4285714328289032
			}
		},
		{
			"doubleSided":true,
			"name":"Tertiary",
			"pbrMetallicRoughness":{
				"baseColorFactor":[
					0.08299089223146439,
					0.1022004783153534,
					0.13198067247867584,
					1
				],
				"metallicFactor":0,
				"roughnessFactor":0.5
			}
		},
		{
			"doubleSided":true,
			"name":"Material.001",
			"pbrMetallicRoughness":{
				"baseColorTexture":{
					"index":0
				},
				"metallicFactor":0,
				"roughnessFactor":0.5
			}
		}
	],
	"meshes":[
		{
			"name":"Circle",
			"primitives":[
				{
					"attributes":{
						"POSITION":0,
						"NORMAL":1,
						"TEXCOORD_0":2
					},
					"indices":3,
					"material":0
				},
				{
					"attributes":{
						"POSITION":4,
						"NORMAL":5,
						"TEXCOORD_0":6
					},
					"indices":7,
					"material":1
				},
				{
					"attributes":{
						"POSITION":8,
						"NORMAL":9,
						"TEXCOORD_0":10
					},
					"indices":11,
					"material":2
				}
			]
		}
	],
	"textures":[
		{
			"sampler":0,
			"source":0
		}
	],
	"images":[
		{
			"mimeType":"image/png",
			"name":"albedo",
			"uri":"albedo.png"
		}
	],
	"accessors":[
		{
			"bufferView":0,
			"componentType":5126,
			"count":136,
			"max":[
				0.6006001234054565,
				0.600600004196167,
				1.8237930536270142
			],
			"min":[
				-0.6006001234054565,
				-0.600600004196167,
				-0.26019376516342163
			],
			"type":"VEC3"
		},
		{
			"bufferView":1,
			"componentType":5126,
			"count":136,
			"type":"VEC3"
		},
		{
			"bufferView":2,
			"componentType":5126,
			"count":136,
			"type":"VEC2"
		},
		{
			"bufferView":3,
			"componentType":5123,
			"count":258,
			"type":"SCALAR"
		},
		{
			"bufferView":4,
			"componentType":5126,
			"count":110,
			"max":[
				0.5497124791145325,
				0.5497124791145325,
				3.226533889770508
			],
			"min":[
				-0.5497123599052429,
				-0.5497124791145325,
				2.0204169750213623
			],
			"type":"VEC3"
		},
		{
			"bufferView":5,
			"componentType":5126,
			"count":110,
			"type":"VEC3"
		},
		{
			"bufferView":6,
			"componentType":5126,
			"count":110,
			"type":"VEC2"
		},
		{
			"bufferView":7,
			"componentType":5123,
			"count":216,
			"type":"SCALAR"
		},
		{
			"bufferView":8,
			"componentType":5126,
			"count":24,
			"max":[
				0.16380000114440918,
				0.16380001604557037,
				2.0204169750213623
			],
			"min":[
				-0.16379985213279724,
				-0.16380001604557037,
				1.8237930536270142
			],
			"type":"VEC3"
		},
		{
			"bufferView":9,
			"componentType":5126,
			"count":24,
			"type":"VEC3"
		},
		{
			"bufferView":10,
			"componentType":5126,
			"count":24,
			"type":"VEC2"
		},
		{
			"bufferView":11,
			"componentType":5123,
			"count":48,
			"type":"SCALAR"
		}
	],
	"bufferViews":[
		{
			"buffer":0,
			"byteLength":1632,
			"byteOffset":0,
			"target":34962
		},
		{
			"buffer":0,
			"byteLength":1632,
			"byteOffset":1632,
			"target":34962
		},
		{
			"buffer":0,
			"byteLength":1088,
			"byteOffset":3264,
			"target":34962
		},
		{
			"buffer":0,
			"byteLength":516,
			"byteOffset":4352,
			"target":34963
		},
		{
			"buffer":0,
			"byteLength":1320,
			"byteOffset":4868,
			"target":34962
		},
		{
			"buffer":0,
			"byteLength":1320,
			"byteOffset":6188,
			"target":34962
		},
		{
			"buffer":0,
			"byteLength":880,
			"byteOffset":7508,
			"target":34962
		},
		{
			"buffer":0,
			"byteLength":432,
			"byteOffset":8388,
			"target":34963
		},
		{
			"buffer":0,
			"byteLength":288,
			"byteOffset":8820,
			"target":34962
		},
		{
			"buffer":0,
			"byteLength":288,
			"byteOffset":9108,
			"target":34962
		},
		{
			"buffer":0,
			"byteLength":192,
			"byteOffset":9396,
			"target":34962
		},
		{
			"buffer":0,
			"byteLength":96,
			"byteOffset":9588,
			"target":34963
		}
	],
	"samplers":[
		{
			"magFilter":9729,
			"minFilter":9987
		}
	],
	"buffers":[
		{
			"byteLength":9684,
			"uri":"aim9.bin"
		}
	]
}
