{
	"asset":{
		"generator":"Khronos glTF Blender I/O v5.0.21",
		"version":"2.0"
	},
	"scene":0,
	"scenes":[
		{
			"name":"Scene",
			"nodes":[
				10
			]
		}
	],
	"nodes":[
		{
			"name":"wing.l",
			"rotation":[
				-0.9974666237831116,
				-0.07113589346408844,
				1.0562666119540154e-07,
				5.370427214046458e-09
			],
			"scale":[
				1.000011920928955,
				1.000000238418579,
				1
			],
			"translation":[
				3.9733362197875977,
				-3.9833009243011475,
				0.13906387984752655
			]
		},
		{
			"name":"tail.l",
			"rotation":[
				0.3726423382759094,
				0.6009474396705627,
				-0.6009472608566284,
				0.37264224886894226
			],
			"scale":[
				1,
				1.0000001192092896,
				1
			],
			"translation":[
				0.6751769185066223,
				-5.8217668533325195,
				-0.17001058161258698
			]
		},
		{
			"name":"wing.r",
			"rotation":[
				0.9974666237831116,
				-0.07113589346408844,
				-1.0562666119540154e-07,
				5.370427214046458e-09
			],
			"scale":[
				1.000011920928955,
				1.000000238418579,
				1
			],
			"translation":[
				-3.9733362197875977,
				-3.9833009243011475,
				0.13906507194042206
			]
		},
		{
			"name":"tail.r",
			"rotation":[
				0.37264248728752136,
				-0.6009472608566284,
				0.6009472012519836,
				0.372642457485199
			],
			"scale":[
				1,
				1.0000001192092896,
				1
			],
			"translation":[
				-0.6751769185066223,
				-5.8217668533325195,
				-0.17001037299633026
			]
		},
		{
			"name":"brake",
			"rotation":[
				0.998501181602478,
				-1.3701750845029892e-08,
				-4.0074033336168213e-07,
				0.05473028123378754
			],
			"scale":[
				1,
				0.9999998807907104,
				1.0000354051589966
			],
			"translation":[
				-1.4440581708186073e-07,
				-1.7999999523162842,
				-0.9563564658164978
			]
		},
		{
			"name":"pressureVortice.L",
			"rotation":[
				0.9999465346336365,
				-7.80432274360976e-10,
				-7.547773606120245e-08,
				0.010339349508285522
			],
			"translation":[
				1.8000000715255737,
				0,
				-0.10000026971101761
			]
		},
		{
			"name":"pressureVortice.R",
			"rotation":[
				0.9999465346336365,
				-7.80432274360976e-10,
				-7.547773606120245e-08,
				0.010339349508285522
			],
			"translation":[
				-1.8000000715255737,
				0,
				-0.09999973326921463
			]
		},
		{
			"name":"burner",
			"rotation":[
				1,
				3.1164150015432505e-16,
				-7.549790126404332e-08,
				2.6142383813265724e-09
			],
			"translation":[
				1.8250913669248803e-08,
				-6.702140808105469,
				0.12087033689022064
			]
		},
		{
			"children":[
				0,
				1,
				2,
				3,
				4,
				5,
				6,
				7
			],
			"name":"root",
			"rotation":[
				0.7071067690849304,
				-5.338507591545749e-08,
				-5.338507591545749e-08,
				0.7071067690849304
			]
		},
		{
			"mesh":0,
			"name":"Cube",
			"skin":0
		},
		{
			"children":[
				9,
				8
			],
			"name":"Armature"
		}
	],
	"materials":[
		{
			"doubleSided":true,
			"emissiveFactor":[
				1,
				1,
				1
			],
			"name":"Material",
			"pbrMetallicRoughness":{
				"baseColorFactor":[
					0.800000011920929,
					0.800000011920929,
					0.800000011920929,
					1
				],
				"metallicFactor":0
			}
		}
	],
	"meshes":[
		{
			"name":"Cube.001",
			"primitives":[
				{
					"attributes":{
						"POSITION":0,
						"NORMAL":1,
						"TEXCOORD_0":2,
						"JOINTS_0":3,
						"WEIGHTS_0":4
					},
					"indices":5,
					"material":0
				}
			]
		}
	],
	"images":[
		{
			"mimeType":"image/png",
			"name":"albedo",
			"uri":"albedo.png"
		},
		{
			"mimeType":"image/png",
			"name":"emmission",
			"uri":"emmission.png"
		},
		{
			"mimeType":"image/png",
			"name":"roughness",
			"uri":"roughness.png"
		}
	],
	"skins":[
		{
			"inverseBindMatrices":6,
			"joints":[
				8,
				0,
				1,
				2,
				3,
				4,
				5,
				6,
				7
			],
			"name":"Armature"
		}
	],
	"accessors":[
		{
			"bufferView":0,
			"componentType":5126,
			"count":1266,
			"max":[
				6.706422805786133,
				1.1560333967208862,
				5.5
			],
			"min":[
				-6.706422805786133,
				-0.9455153942108154,
				-12.427742958068848
			],
			"type":"VEC3"
		},
		{
			"bufferView":1,
			"componentType":5126,
			"count":1266,
			"type":"VEC3"
		},
		{
			"bufferView":2,
			"componentType":5126,
			"count":1266,
			"type":"VEC2"
		},
		{
			"bufferView":3,
			"componentType":5121,
			"count":1266,
			"type":"VEC4"
		},
		{
			"bufferView":4,
			"componentType":5126,
			"count":1266,
			"type":"VEC4"
		},
		{
			"bufferView":5,
			"componentType":5123,
			"count":3396,
			"type":"SCALAR"
		},
		{
			"bufferView":6,
			"componentType":5126,
			"count":9,
			"type":"MAT4"
		}
	],
	"bufferViews":[
		{
			"buffer":0,
			"byteLength":15192,
			"byteOffset":0,
			"target":34962
		},
		{
			"buffer":0,
			"byteLength":15192,
			"byteOffset":15192,
			"target":34962
		},
		{
			"buffer":0,
			"byteLength":10128,
			"byteOffset":30384,
			"target":34962
		},
		{
			"buffer":0,
			"byteLength":5064,
			"byteOffset":40512,
			"target":34962
		},
		{
			"buffer":0,
			"byteLength":20256,
			"byteOffset":45576,
			"target":34962
		},
		{
			"buffer":0,
			"byteLength":6792,
			"byteOffset":65832,
			"target":34963
		},
		{
			"buffer":0,
			"byteLength":576,
			"byteOffset":72624
		}
	],
	"buffers":[
		{
			"byteLength":73200,
			"uri":"demo_jet.bin"
		}
	]
}
