{
	"asset":{
		"generator":"Khronos glTF Blender I/O v5.0.21",
		"version":"2.0"
	},
	"scene":0,
	"scenes":[
		{
			"name":"Scene",
			"nodes":[
				0
			]
		}
	],
	"nodes":[
		{
			"mesh":0,
			"name":"Cube"
		}
	],
	"meshes":[
		{
			"name":"Cube.001",
			"primitives":[
				{
					"attributes":{
						"POSITION":0,
						"NORMAL":1,
						"TEXCOORD_0":2
					},
					"indices":3
				}
			]
		}
	],
	"accessors":[
		{
			"bufferView":0,
			"componentType":5126,
			"count":551,
			"max":[
				6.706422805786133,
				1.1560333967208862,
				5.5
			],
			"min":[
				-6.706422805786133,
				-0.9455153942108154,
				-7.673697471618652
			],
			"type":"VEC3"
		},
		{
			"bufferView":1,
			"componentType":5126,
			"count":551,
			"type":"VEC3"
		},
		{
			"bufferView":2,
			"componentType":5126,
			"count":551,
			"type":"VEC2"
		},
		{
			"bufferView":3,
			"componentType":5123,
			"count":1710,
			"type":"SCALAR"
		}
	],
	"bufferViews":[
		{
			"buffer":0,
			"byteLength":6612,
			"byteOffset":0,
			"target":34962
		},
		{
			"buffer":0,
			"byteLength":6612,
			"byteOffset":6612,
			"target":34962
		},
		{
			"buffer":0,
			"byteLength":4408,
			"byteOffset":13224,
			"target":34962
		},
		{
			"buffer":0,
			"byteLength":3420,
			"byteOffset":17632,
			"target":34963
		}
	],
	"buffers":[
		{
			"byteLength":21052,
			"uri":"demo_jet.bin"
		}
	]
}
